<?xml version="1.0" encoding="utf-8"?>
<!-- Generator: Adobe Illustrator 15.1.0, SVG Export Plug-In . SVG Version: 6.00 Build 0)  -->
<!DOCTYPE svg PUBLIC "-//W3C//DTD SVG 1.1//EN" "http://www.w3.org/Graphics/SVG/1.1/DTD/svg11.dtd">
<svg version="1.1" id="Layer_1" xmlns="http://www.w3.org/2000/svg" xmlns:xlink="http://www.w3.org/1999/xlink" x="0px" y="0px"
	 width="425px" height="401.47px" viewBox="0 0 425 401.47" enable-background="new 0 0 425 401.47" xml:space="preserve">
<polygon fill="#FFFFFF" points="201.556,105.929 244.38,80.815 244.38,42.714 196.447,23.049 123.932,45.172 87.06,89.418 
	87.06,137.351 80.041,163.162 58.792,203.673 45.271,254.113 45.271,310.65 80.041,347.521 132.535,375.79 203.82,381.935 
	268.962,363.499 309.521,327.856 325.499,263.946 312.267,210.98 297.229,187.744 359.912,166.849 404.158,127.519 409.67,87.525 
	378.367,52.057 323.708,65.002 238.139,62.715 "/>
<g>
	<path fill="#650E3D" d="M213.26,63.355c10.178,0,17.236,5.126,21.173,15.366c2.468-5.045,3.706-10.37,3.706-16.006
		c0-5.627-1.613-10.615-4.811-14.984c-3.207-4.364-7.432-7.643-12.684-9.823c-9.689-4.369-20.194-6.554-31.524-6.554
		c-25.781,0-46.186,7.773-61.203,23.31c-15.027,15.53-22.536,34.884-22.536,58.063c0,11.253,1.401,21.413,4.187,30.481
		c13.472-3.355,26.521-5.036,39.157-5.036c32.349,0,48.528,10.835,48.528,32.498c0,9.41-4.032,17.092-12.079,23.05
		c-8.036,5.957-16.823,8.949-26.349,8.949c-17.562,0-37.688-7.729-60.339-23.18c-21.681,24.86-32.512,51.813-32.512,80.863
		c0,21.168,5.741,40.688,17.235,58.573c11.493,17.888,26.771,31.96,45.812,42.2c19.05,10.245,39.569,15.369,61.577,15.369
		c40.386,0,73.726-12.853,99.996-38.543c19.204-18.643,28.816-42.412,28.816-71.301c0-15.617-5.906-29.262-17.735-40.938
		c-11.82-11.672-24.293-17.504-37.429-17.504s-23.977,3.812-32.513,11.459c-8.536,7.648-12.81,15.916-12.81,24.816
		c0,8.905,2.545,16.333,7.634,22.291c5.09,5.959,11.494,9.871,19.204,11.72c-3.773-5.199-5.655-10.994-5.655-17.386
		c0-6.38,1.882-11.804,5.655-16.255c3.783-4.44,9.122-6.669,16.017-6.669c6.894,0,12.396,2.305,16.496,6.924
		c4.109,4.623,6.164,10.547,6.164,17.768s-3.081,13.77-9.237,19.646c-6.163,5.886-15.151,8.814-26.972,8.814
		s-22.612-4.867-32.388-14.604c-9.765-9.741-14.653-21.076-14.653-34.014c0-12.931,2.219-23.925,6.646-32.999
		c4.436-9.074,10.438-16.164,17.984-21.288c7.558-5.127,16.257-9.361,26.108-12.722c9.852-3.355,20.154-5.877,30.898-7.558
		c10.764-1.674,21.558-3.273,32.397-4.786c10.832-1.517,21.183-3.365,31.034-5.546c9.852-2.179,18.551-5.04,26.099-8.564
		c16.419-7.388,24.629-20.404,24.629-39.046c0-13.942-4.389-25.24-13.174-33.891c-8.776-8.646-18.887-12.967-30.294-12.967
		c-11.408,0-18.754,4.282-22.037,12.847c17.072,2.353,25.608,9.404,25.608,21.163c0,6.717-2.506,12.43-7.509,17.13
		c-5.012,4.699-11.004,7.052-17.984,7.052c-6.971,0-12.973-3.11-17.975-9.318c-5.013-6.212-7.51-12.853-7.51-19.909
		c0-12.93,4.601-23.679,13.788-32.239c9.2-8.565,20.28-12.853,33.253-12.853c19.703,0,34.971,7.015,45.811,21.034
		c10.832,14.023,16.257,31.115,16.257,51.266c0,32.758-14.125,56.604-42.364,71.555c-15.767,8.224-35.96,14.858-60.589,19.899
		c7.721,9.915,13.587,19.233,17.61,27.961c4.023,8.729,6.03,20.03,6.03,33.886s-3.035,28.006-9.104,42.451
		c-6.077,14.447-14.124,26.411-24.14,35.901c-10.015,9.487-21.595,17.501-34.73,24.06c-24.629,12.256-51.889,18.388-81.771,18.388
		c-26.108,0-48.971-2.813-68.587-8.44c-19.628-5.627-35.144-11.877-46.562-18.768c-11.406-6.885-21.624-14.945-30.659-24.183
		C20.815,322.584,11.05,296.3,11.05,263.384c0-34.77,14.528-65.256,43.593-91.455c6.895-6.208,14.038-11.498,21.432-15.873
		c-3.284-4.872-6.366-11.628-9.237-20.283c-2.881-8.643-4.312-16.828-4.312-24.553c0-19.31,5.79-36.531,17.361-51.654
		c11.58-15.108,26.146-26.525,43.718-34.255c17.572-7.726,36.209-11.585,55.912-11.585c17.899,0,33.003,2.857,45.322,8.561
		c23.313,10.418,34.971,25.786,34.971,46.104c0,11.931-3.37,22.296-10.102,31.11c-6.73,8.814-15.065,13.228-25.003,13.228
		c-9.929,0-17.649-2.263-23.15-6.799c-5.492-4.537-8.249-10.999-8.249-19.405C193.307,71.074,199.951,63.355,213.26,63.355z
		 M114.992,163.369c16.746,12.43,31.438,18.639,44.083,18.639c12.637,0,18.965-3.606,18.965-10.828
		c0-9.236-7.471-13.859-22.422-13.859c-7.384,0-17.639,1.345-30.773,4.033L114.992,163.369z"/>
</g>
</svg>
