<?xml version="1.0" encoding="UTF-8" standalone="no"?>
<svg
   xmlns:dc="http://purl.org/dc/elements/1.1/"
   xmlns:cc="http://creativecommons.org/ns#"
   xmlns:rdf="http://www.w3.org/1999/02/22-rdf-syntax-ns#"
   xmlns:svg="http://www.w3.org/2000/svg"
   xmlns="http://www.w3.org/2000/svg"
   xmlns:sodipodi="http://sodipodi.sourceforge.net/DTD/sodipodi-0.dtd"
   xmlns:inkscape="http://www.inkscape.org/namespaces/inkscape"
   width="427"
   height="393"
   version="1.1"
   id="svg3365"
   inkscape:version="0.91 r13725"
   sodipodi:docname="014b.svg"
   preserveAspectRatio="xMinYMin meet"
   viewBox="0 0 427 393">
  <metadata
     id="metadata3373">
    <rdf:RDF>
      <cc:Work
         rdf:about="">
        <dc:format>image/svg+xml</dc:format>
        <dc:type
           rdf:resource="http://purl.org/dc/dcmitype/StillImage" />
        <dc:title></dc:title>
      </cc:Work>
    </rdf:RDF>
  </metadata>
  <defs
     id="defs3371" />
  <sodipodi:namedview
     pagecolor="#ffffff"
     bordercolor="#666666"
     borderopacity="1"
     objecttolerance="10"
     gridtolerance="10"
     guidetolerance="10"
     inkscape:pageopacity="0"
     inkscape:pageshadow="2"
     inkscape:window-width="1624"
     inkscape:window-height="1026"
     id="namedview3369"
     showgrid="false"
     inkscape:zoom="1.1186667"
     inkscape:cx="50.156266"
     inkscape:cy="173.10027"
     inkscape:window-x="56"
     inkscape:window-y="24"
     inkscape:window-maximized="1"
     inkscape:current-layer="svg3365"
     showborder="true"
     inkscape:showpageshadow="false" />
  <path
     glyph-name="ampersand"
     unicode="&amp;"
     oriz-adv-x="1661"
     style="fill: #66023C;"
     d="m 213.06241,57.40673 q 15.5,0 21.5,15.25 3.75,-7.5 3.75,-15.875 0,-8.375 -4.875,-14.875 -4.875,-6.5 -12.875,-9.75 -14.75,-6.5 -32,-6.5 -39.25,0 -62.125,23.125 -22.875,23.125 -22.875,57.625 0,16.75 4.25,30.25 20.5,-5 39.75,-5 49.25,0 49.25,32.25 0,14 -12.25,22.875 -12.25,8.875 -26.75,8.875 -26.75,0 -61.249999,-23 -33,37 -33,80.25 0,31.5 17.5,58.125 17.5,26.625 46.499999,41.875 29,15.25 62.5,15.25 61.49999,0 101.49999,-38.25 29.25,-27.75 29.25,-70.75 0,-23.25 -18,-40.625 -18,-17.375 -38,-17.375 -20,0 -32.99999,11.375 -13,11.375 -13,24.625 0,13.25001 7.75,22.125 7.75,8.875 19.49999,11.625 -5.74999,-7.75 -5.74999,-17.25 0,-9.5 5.74999,-16.125 5.75,-6.625 16.25,-6.625 10.5,0 16.75,6.875 6.25,6.875 6.25,17.625 0,10.75 -9.375,19.5 -9.375,8.75 -27.375,8.75 -17.99999,0 -32.87499,-14.5 -14.875,-14.5 -14.875,-33.75 0,-19.25 6.75,-32.75 6.75,-13.5 18.25,-21.125 11.5,-7.625 26.49999,-12.625 15,-5 31.375,-7.5 16.375,-2.5 32.875,-4.75 16.5,-2.25 31.5,-5.5 15,-3.25 26.49999,-8.5 25,-11 25,-38.75 0,-20.75 -13.375,-33.625 -13.375,-12.875 -30.74999,-12.875 -17.375,0 -22.375,12.75 26,3.5 26,21 0,10 -7.625,17 -7.625,7 -18.25,7 -10.625,0 -18.25,-9.25 -7.625,-9.25 -7.625,-19.75 0,-19.25 14,-32 14,-12.75 33.75,-12.75 29.99999,0 46.49999,20.875 16.5,20.875 16.5,50.875 0,48.75 -43,71 -23.99999,12.25 -61.49999,19.75 11.75,14.75 17.875,27.75 6.125,13 6.125,33.625 0,20.625 -9.25,42.125 -9.25,21.5 -24.5,35.625 -15.25,14.125 -35.25,23.875 -37.49999,18.25 -82.99999,18.25 -39.75,0 -69.625,-8.375 -29.874999,-8.375 -47.249999,-18.625 -17.375,-10.25 -31.125,-24 -29.7499996,-29.25 -29.7499996,-78.25 0,-51.75 44.2499996,-90.75 10.5,-9.25 21.75,-15.75 -5,-7.25 -9.375,-20.125 -4.375,-12.875 -4.375,-24.375 0,-28.75 17.625,-51.25 17.625,-22.5 44.374999,-33.99999 26.75,-11.5 56.75,-11.5 27.25,0 46,8.5 35.49999,15.49999 35.49999,45.74999 0,17.75 -10.25,30.875 -10.24999,13.125 -25.37499,13.125 -15.125,0 -23.5,-6.75 -8.375,-6.75 -8.375,-19.25 0,-23 20.25,-23 z m -99.75,99.25 q 25.5,18.5 44.75,18.5 19.25,0 19.25,-10.75 0,-13.75 -22.75,-13.75 -11.25,0 -31.25,4 z"
     id="path3367"
     inkscape:connector-curvature="0" />
  <path
     style="fill:none;fill-rule:evenodd;stroke:none;stroke-width:1px;stroke-linecap:butt;stroke-linejoin:miter;stroke-opacity:1"
     d="m 240.15597,34.33015 85.36948,25.47676 42.90824,-9.38617 37.9916,34.41597 2.6818,42.0143 -14.3027,27.2646 -42.90826,17.87843 -32.18115,8.04529 -22.34805,12.06794 8.49225,19.21931 23.68892,37.54471 -1.34087,25.47674 -6.25745,27.71155 -26.3707,36.20383 -43.35518,24.58282 -49.61262,8.93923 -62.5745,-4.4696 -35.30989,-11.17403 -82.687719,-91.17997 32.18116,-81.34684 44.69607,-28.60549 -12.96186,-76.43027 25.476759,-31.73421 43.80215,-26.37067 40.67342,-5.36353 23.24195,6.70441 z"
     id="path3377"
     inkscape:connector-curvature="0" />
  <path
     style="fill:#ffffff;stroke:none;stroke-width:0px;stroke-linecap:butt;stroke-linejoin:miter;stroke-opacity:1"
     d="m 177.358,367.41438 c -25.4716,-2.53012 -48.67184,-11.6446 -68.92412,-27.07755 -5.40389,-4.11795 -15.903009,-14.41727 -20.202219,-19.81777 -12.503,-15.70578 -20.37512,-33.2442 -23.37201,-52.0709 -1.10459,-6.9391 -1.10194,-23.89465 0.005,-31.06378 3.36217,-21.77806 12.71979,-41.64673 28.58742,-60.69858 l 3.09085,-3.71109 1.18681,0.78183 c 13.321779,8.77595 29.168469,16.28695 40.742829,19.31127 8.0952,2.11522 11.23822,2.52155 19.21931,2.48462 6.05804,-0.028 7.99273,-0.20356 10.83529,-0.98298 11.79844,-3.23511 21.65804,-10.28097 25.57195,-18.27421 1.87077,-3.82062 2.49726,-6.27262 2.78191,-10.88815 0.7898,-12.80632 -5.00847,-22.64266 -16.61763,-28.19057 -14.21807,-6.79469 -39.44783,-7.62622 -65.9267,-2.17283 -3.31869,0.68349 -6.17016,1.11096 -6.3366,0.94993 -0.16645,-0.16103 -0.70777,-1.90184 -1.20295,-3.86847 -3.95567,-15.71026 -3.98485,-34.08315 -0.0774,-48.71722 5.537,-20.73686 20.14919,-38.87212 38.88308,-48.25799 11.60629,-5.81487 23.56848,-8.59557 38.91401,-9.04585 12.16763,-0.35704 19.33098,0.5585 29.15483,3.72622 5.9909,1.93178 11.93527,4.88622 14.89201,7.40156 6.86384,5.83915 10.09218,13.33012 9.43235,21.88662 -0.3731,4.83828 -2.45054,12.44349 -3.39906,12.44349 -0.17712,0 -0.80896,-1.05089 -1.40409,-2.33531 -1.59455,-3.44133 -6.1947,-8.12326 -9.52188,-9.69113 -8.17092,-3.8504 -19.0239,-2.80149 -24.77517,2.39444 -2.3441,2.11775 -3.75885,4.56554 -5.05037,8.73808 -1.37315,4.43627 -1.49459,13.50435 -0.23644,17.65494 2.79044,9.20554 9.73999,15.01448 20.66235,17.27108 5.91337,1.22172 15.97904,1.00261 19.97381,-0.43479 5.32236,-1.91509 8.00849,-3.68711 12.61533,-8.32221 8.59868,-8.65144 12.84141,-18.62979 13.50248,-31.75603 0.42395,-8.41779 -0.9442,-15.3709 -4.3885,-22.3032 -0.96485,-1.94197 -1.69075,-3.59441 -1.61307,-3.67209 0.11452,-0.11452 43.61722,12.74477 59.01075,17.44343 l 3.93715,1.20176 -1.59673,2.10068 c -5.59845,7.36548 -8.34285,15.6124 -8.43345,25.34265 -0.0574,6.16131 0.84775,9.94523 3.58158,14.97318 6.08772,11.19632 15.36325,16.40568 26.37602,14.8134 12.6812,-1.83351 21.99608,-11.88528 22.02778,-23.77045 0.0288,-10.81301 -7.98998,-18.15134 -22.49845,-20.58919 -1.88028,-0.31594 -3.41865,-0.70517 -3.41865,-0.86495 0,-0.15978 0.77487,-1.4894 1.72195,-2.95472 4.3276,-6.69563 11.01455,-9.39464 22.19042,-8.95661 9.66353,0.37876 17.59951,3.39754 25.29771,9.62308 11.267,9.11148 16.5743,20.61843 16.6279,36.05165 0.043,12.37299 -2.9996,21.12571 -9.8894,28.44957 -5.3579,5.69552 -10.572,8.94974 -20.6038,12.85927 -13.19926,5.1439 -25.80278,7.7672 -63.61041,13.23986 -25.89132,3.74777 -33.72057,5.15919 -43.5322,7.84778 -13.47565,3.69262 -26.55164,9.2942 -35.47275,15.19603 -9.73082,6.43752 -17.8251,17.15719 -21.67282,28.70244 -2.62998,7.89135 -4.09474,18.89364 -3.67044,27.56976 0.59372,12.14039 5.28442,22.37705 14.42228,31.47415 9.22142,9.18033 19.69274,14.15835 31.2577,14.85985 15.48773,0.9394 28.27468,-4.5226 34.99241,-14.94717 4.86307,-7.54658 5.36442,-17.67789 1.28712,-26.01105 -1.7604,-3.59788 -5.97245,-7.93425 -9.27737,-9.5512 -4.86573,-2.38058 -11.00628,-3.06148 -16.71125,-1.853 -4.33473,0.9182 -7.50991,2.65395 -10.21591,5.58467 -4.37463,4.73795 -6.2519,9.78345 -6.23503,16.75783 0.012,4.96042 0.93371,8.78622 3.20353,13.29707 0.95868,1.90518 1.69558,3.46395 1.63755,3.46395 -0.54685,0 -5.47598,-1.92962 -7.40684,-2.8996 -10.4934,-5.27135 -16.96711,-14.40175 -18.38359,-25.92787 -1.22975,-10.00665 1.88381,-18.13205 10.11492,-26.39675 8.28307,-8.31686 17.30554,-12.39365 30.09887,-13.60009 11.6905,-1.10245 23.12917,1.99859 33.234,9.00982 15.03825,10.43426 24.23777,23.71852 26.96147,38.93283 1.08915,6.08394 0.75705,20.47154 -0.6565,28.44116 -2.8155,15.87383 -9.03285,29.78693 -18.79305,42.05478 -3.55887,4.47325 -12.49047,13.25817 -17.87,17.57652 -19.89187,15.96798 -44.15432,25.85493 -71.51371,29.14178 -7.16422,0.8607 -27.34982,1.23542 -33.52205,0.62232 z"
     id="path3379"
     inkscape:connector-curvature="0" />
  <path
     style="fill:#ffffff;stroke:none;stroke-width:1px;stroke-linecap:butt;stroke-linejoin:miter;stroke-opacity:1"
     d="m 152.10472,174.53016 c -4.719,-0.92926 -6.28637,-1.31021 -9.38617,-2.2813 -4.27307,-1.33865 -9.89482,-3.8243 -15.02315,-6.64248 -4.20584,-2.31124 -13.35886,-8.2501 -13.35886,-8.66779 0,-0.32281 17.48935,-3.74566 24.01713,-4.7004 14.51046,-2.12227 26.20514,-1.55655 32.28647,1.56181 2.30223,1.18054 4.79526,3.86613 5.63844,6.07396 0.51535,1.34942 0.68301,2.86458 0.5593,5.05414 -0.15138,2.67887 -0.37256,3.36899 -1.54342,4.81562 -2.79284,3.45065 -8.29507,5.07756 -16.93229,5.00656 -2.94994,-0.0242 -5.76579,-0.1233 -6.25745,-0.22012 z"
     id="path3381"
     inkscape:connector-curvature="0" />
  <path
     style="fill:#ffffff"
     d="m 177.85174,367.38136 c -0.58884,-0.2187 -1.69507,-0.40215 -2.45828,-0.40768 -1.90828,-0.0138 -4.38078,-0.2716 -5.18683,-0.54075 -1.71664,-0.57322 -10.84217,-2.09332 -11.2083,-1.86705 -0.22698,0.14028 -0.41268,0.0185 -0.41268,-0.27042 0,-0.3054 -0.37435,-0.42758 -0.89392,-0.2917 -0.49166,0.12857 -0.89392,0.028 -0.89392,-0.22348 0,-0.2515 -0.39262,-0.35457 -0.87249,-0.2291 -0.47987,0.1255 -0.93242,0.0987 -1.00566,-0.0596 -0.13596,-0.29377 -14.78265,-5.37822 -16.00028,-5.55432 -0.36874,-0.0534 -0.87157,-0.2538 -1.1174,-0.44548 -0.24583,-0.19167 -3.56451,-1.9053 -7.37485,-3.80805 -13.57943,-6.78107 -22.31748,-13.03927 -32.870859,-23.54212 -7.55841,-7.52225 -11.14054,-11.83578 -15.97122,-19.2322 -5.12707,-7.85025 -10.20333,-18.38765 -12.64989,-26.25893 -0.43935,-1.41352 -0.97509,-2.57002 -1.19053,-2.57002 -0.21544,0 -0.27789,-0.18418 -0.13877,-0.40928 0.30669,-0.49622 -1.14359,-6.7421 -1.5655,-6.7421 -0.16421,0 -0.20244,-0.50282 -0.085,-1.1174 0.1217,-0.63667 0.005,-1.1174 -0.27143,-1.1174 -0.26678,0 -0.36927,-0.3017 -0.22777,-0.67045 0.1415,-0.36875 0.11105,-1.02242 -0.0677,-1.45262 -0.41717,-1.0042 -0.63081,-2.91393 -0.62503,-5.587 0.003,-1.16768 -0.1562,-2.12298 -0.35272,-2.12285 -0.42611,0 -0.48847,-19.3429 -0.0634,-19.66733 0.16165,-0.1234 0.39255,-1.83302 0.51311,-3.79917 0.12056,-1.96615 0.34142,-3.87653 0.49081,-4.24528 0.14938,-0.36875 0.32074,-1.47497 0.3808,-2.45827 0.0601,-0.98333 0.2785,-1.9117 0.48542,-2.06305 0.20692,-0.15135 0.40805,-1.1056 0.44696,-2.12054 0.0389,-1.01493 0.19174,-1.84647 0.33963,-1.84786 0.14788,-0.001 0.62773,-1.36017 1.06632,-3.01951 3.74931,-14.18495 12.76658,-31.08966 23.85661,-44.72405 1.87751,-2.30828 3.63697,-4.47821 3.9099,-4.82208 0.27293,-0.34387 0.6551,-0.62521 0.84927,-0.62521 0.19418,0 1.97304,1.03918 3.953029,2.3093 1.98,1.27011 3.86056,2.30929 4.17904,2.30929 0.31847,0 0.57904,0.14842 0.57904,0.32981 0,0.41974 4.95337,3.23822 5.69875,3.2426 0.30729,0.002 0.5587,0.1279 0.5587,0.28022 0,0.15232 2.26274,1.35618 5.02831,2.67526 2.76557,1.31907 5.78255,2.78285 6.70441,3.25285 0.92185,0.46999 1.6761,0.73646 1.6761,0.59215 0,-0.14431 0.50283,0.0671 1.1174,0.46977 0.61457,0.40268 1.1174,0.60381 1.1174,0.44696 0,-0.15686 0.45932,0.0158 1.02071,0.3836 0.56139,0.36784 1.51677,0.75979 2.12306,0.87101 0.6063,0.11122 1.15264,0.24231 1.2141,0.2913 0.0615,0.049 0.31287,0.13937 0.5587,0.20083 0.24583,0.0615 0.54753,0.16202 0.67044,0.22348 0.12292,0.0615 0.42461,0.16202 0.67044,0.22348 0.24583,0.0615 0.54753,0.16202 0.67044,0.22348 0.12292,0.0615 0.37433,0.15373 0.55871,0.20506 0.18437,0.0513 0.91622,0.33351 1.62635,0.62708 0.71012,0.29356 1.39557,0.4293 1.52323,0.30164 0.12766,-0.12766 0.4702,-0.0345 0.7612,0.207 0.29099,0.2415 1.12312,0.50413 1.84918,0.58362 0.72605,0.0795 1.54066,0.28083 1.81023,0.44743 0.26958,0.16661 1.28642,0.37466 2.25965,0.46232 0.97323,0.0877 1.9619,0.2783 2.19706,0.42363 0.52803,0.32635 2.24292,0.39314 10.20939,0.39768 7.93368,0.005 9.55887,-0.083 9.83482,-0.52947 0.12248,-0.19817 0.62475,-0.25516 1.11616,-0.12666 0.49141,0.12851 0.89362,0.0593 0.89379,-0.1537 1.7e-4,-0.21304 0.45272,-0.41355 1.00566,-0.44557 0.55294,-0.032 1.80988,-0.41353 2.79319,-0.8478 0.98332,-0.43428 2.0438,-0.84349 2.35663,-0.90938 2.33359,-0.49145 11.27567,-6.01481 11.27567,-6.96478 0,-0.2394 0.16731,-0.33187 0.3718,-0.20548 0.49186,0.30398 4.65646,-3.939 4.25766,-4.3378 -0.16986,-0.16986 -0.0879,-0.30884 0.18218,-0.30884 0.54292,0 2.20686,-2.16131 2.42469,-3.14946 0.0762,-0.34563 0.39179,-0.90084 0.70133,-1.2338 0.30955,-0.33296 0.45914,-0.77311 0.33244,-0.97813 -0.12671,-0.20501 -0.019,-0.44319 0.23923,-0.52928 0.25828,-0.0861 0.50347,-0.60611 0.54486,-1.15558 0.0414,-0.54947 0.21294,-0.99904 0.38122,-0.99904 0.94055,0 1.73309,-13.97716 0.82438,-14.53877 -0.24268,-0.14999 -0.31674,-0.47415 -0.16457,-0.72036 0.35956,-0.58178 -1.58602,-6.64194 -2.13235,-6.64194 -0.22951,0 -0.29299,-0.20114 -0.14106,-0.44696 0.15193,-0.24583 0.0514,-0.44697 -0.22348,-0.44697 -0.27484,0 -0.39423,-0.17067 -0.26531,-0.37927 0.12892,-0.20859 -0.16091,-0.80358 -0.64406,-1.32219 -0.48316,-0.51861 -0.87847,-1.07324 -0.87847,-1.23251 0,-1.74911 -9.68344,-9.66511 -11.28576,-9.22586 -0.18437,0.0505 -0.33522,-0.0874 -0.33522,-0.30661 0,-0.21918 -0.55311,-0.55476 -1.22914,-0.74574 -1.58666,-0.44823 -1.41997,-0.38631 -3.27722,-1.21737 -0.88061,-0.39404 -2.08741,-0.78322 -2.68176,-0.86483 -0.59436,-0.0816 -1.34545,-0.31429 -1.66909,-0.51705 -0.32364,-0.20276 -0.70206,-0.25503 -0.84094,-0.11615 -0.13889,0.13888 -0.628,0.0516 -1.08692,-0.19405 -0.45892,-0.2456 -1.68955,-0.55711 -2.73474,-0.69223 -1.04518,-0.13513 -2.50373,-0.33943 -3.24121,-0.454 -3.94714,-0.61323 -7.19508,-0.76396 -16.53755,-0.76745 -5.65405,-0.002 -11.48689,0.11809 -12.96186,0.26711 -3.51709,0.35535 -6.38729,0.68947 -8.04529,0.93654 -0.73748,0.10991 -2.53736,0.33444 -3.99971,0.49896 -1.46237,0.16453 -2.8315,0.40585 -3.04253,0.53627 -0.21102,0.13042 -0.82474,0.30823 -1.36381,0.39514 -0.53907,0.0869 -1.48295,0.2569 -2.09752,0.37778 -0.61457,0.12087 -1.92193,0.3302 -2.90525,0.46517 -0.98331,0.13496 -2.43158,0.3555 -3.21836,0.49008 -1.39539,0.23869 -1.44754,0.18743 -2.12307,-2.08733 -0.38089,-1.28262 -0.69254,-2.59723 -0.69254,-2.92136 0,-0.32412 -0.15085,-0.59071 -0.33522,-0.59243 -0.18437,-0.002 -0.37942,-0.95506 -0.43345,-2.11855 -0.054,-1.1635 -0.26989,-2.17267 -0.47969,-2.24261 -0.2098,-0.0699 -0.29362,-0.72564 -0.18626,-1.45712 0.10736,-0.73149 -7.5e-4,-1.32998 -0.24051,-1.32998 -0.23964,0 -0.34023,-0.49947 -0.22353,-1.10994 0.1167,-0.61047 0.0702,-1.46529 -0.10337,-1.89958 -0.5878,-1.47091 -0.9703,-19.43535 -0.44264,-20.78931 0.16726,-0.4292 0.22731,-1.58571 0.13344,-2.57002 -0.0939,-0.98432 0.007,-1.78967 0.22526,-1.78967 0.21776,0 0.31375,-0.70396 0.2133,-1.56436 -0.10045,-0.8604 0.001,-1.56436 0.22531,-1.56436 0.22437,0 0.31938,-0.6034 0.21114,-1.34088 -0.10824,-0.73749 -0.007,-1.34089 0.22486,-1.34089 0.23191,0 0.32687,-0.49581 0.21103,-1.1018 -0.11584,-0.606 -0.0456,-1.15912 0.15608,-1.22914 0.20168,-0.07 0.42387,-0.8313 0.49374,-1.6917 0.0699,-0.8604 0.2857,-1.68163 0.47963,-1.82496 0.19393,-0.14333 0.39506,-0.84729 0.44696,-1.56436 0.0519,-0.71707 0.26485,-1.42835 0.47323,-1.5806 0.20838,-0.15226 0.40951,-0.8058 0.44696,-1.45231 0.0375,-0.64651 0.19162,-1.17562 0.34259,-1.17579 0.15098,-1.7e-4 0.62893,-0.95569 1.06212,-2.12338 1.47739,-3.98233 6.06329,-12.3951 9.0706,-16.63988 3.87568,-5.47047 12.12853,-13.72639 17.52783,-17.53436 2.33537,-1.64707 6.25745,-4.0445 8.71573,-5.32761 2.45828,-1.28312 4.53288,-2.48774 4.61023,-2.67694 0.0773,-0.18919 0.40338,-0.24316 0.72455,-0.11992 0.32116,0.12325 0.86128,-0.0389 1.20026,-0.36033 0.33898,-0.32142 0.81746,-0.5844 1.06329,-0.5844 0.65019,0 7.11098,-2.12619 7.37485,-2.427 0.12292,-0.14012 0.92745,-0.31193 1.78785,-0.3818 0.86039,-0.0699 1.62429,-0.29994 1.69753,-0.51125 0.0732,-0.21132 0.52579,-0.28155 1.00566,-0.15606 0.47987,0.12549 0.87393,0.0539 0.8757,-0.15919 0.002,-0.21304 1.05771,-0.43921 2.34654,-0.50259 1.28884,-0.0634 2.39679,-0.27405 2.46214,-0.46813 0.0653,-0.19409 0.81958,-0.27107 1.6761,-0.17107 0.85651,0.1 1.5573,0.009 1.5573,-0.20232 0,-0.21126 1.15651,-0.39388 2.57003,-0.40582 1.41351,-0.0119 6.89436,-0.0761 12.17967,-0.1425 5.28531,-0.0665 9.965,0.0164 10.3993,0.18411 0.43429,0.16771 1.28209,0.21079 1.88398,0.0957 0.6019,-0.11506 1.15166,-0.0389 1.22169,0.1693 0.07,0.20817 1.18184,0.43035 2.47067,0.49373 1.28884,0.0634 2.34478,0.28956 2.34655,0.5026 0.002,0.21305 0.40547,0.28216 0.89712,0.15359 0.49166,-0.12857 0.89392,-0.028 0.89392,0.22348 0,0.25148 0.40227,0.35205 0.89393,0.22348 0.49165,-0.12857 0.89392,-0.0833 0.89392,0.1006 0,0.4748 3.50483,1.46633 4.03184,1.14062 0.24077,-0.1488 0.43776,-0.098 0.43776,0.113 0,0.21095 0.75425,0.65009 1.67611,0.97587 3.58163,1.26571 9.02411,4.10327 11.6361,6.06674 4.39195,3.30148 8.43731,9.31842 9.27803,13.79983 0.16733,0.89197 0.43271,1.62176 0.58972,1.62176 0.15701,0 0.28548,2.11189 0.28548,4.69309 0,2.58119 -0.17368,4.69308 -0.38595,4.69308 -0.21227,0 -0.29739,0.6034 -0.18915,1.34089 0.10824,0.73748 0.007,1.34088 -0.22488,1.34088 -0.23193,0 -0.31649,0.40226 -0.18792,0.89392 0.12858,0.49166 0.0738,0.89392 -0.1216,0.89392 -0.34235,0 -1.07754,2.96812 -0.80965,3.26872 0.0722,0.081 -0.23025,0.5089 -0.67216,0.9508 -0.9394,0.93941 -0.82005,1.02644 -2.10908,-1.53776 -1.27021,-2.52675 -6.75402,-8.04707 -9.26782,-9.32951 -1.04439,-0.53281 -1.89889,-0.83947 -1.89889,-0.68146 0,0.15801 -0.3017,0.0369 -0.67045,-0.26912 -0.36874,-0.30603 -0.67044,-0.4066 -0.67044,-0.22348 0,0.18311 -0.25141,0.13459 -0.5587,-0.10783 -0.71066,-0.56065 -0.98853,-0.59621 -6.36919,-0.81523 -4.3334,-0.17639 -7.99553,0.30798 -9.83313,1.30056 -0.49166,0.26557 -1.04477,0.44012 -1.22914,0.3879 -0.18437,-0.0522 -0.33522,0.10617 -0.33522,0.352 0,0.24583 -0.30602,0.44696 -0.68003,0.44696 -1.70919,0 -7.08269,6.64104 -7.49006,9.25687 -0.0685,0.43986 -0.28145,1.05116 -0.47322,1.35845 -0.19176,0.30728 -0.23295,0.74593 -0.0915,0.97477 0.14144,0.22885 0.0663,0.53404 -0.16698,0.67821 -0.23328,0.14417 -0.44919,0.81175 -0.47981,1.48351 -0.16167,3.54699 -0.0924,11.29516 0.11562,12.93693 0.24895,1.96455 2.94893,8.17419 3.55418,8.17419 0.19156,0 0.34829,0.21425 0.34829,0.47611 0,1.12932 7.15907,7.4125 7.76052,6.81105 0.15663,-0.15663 0.28477,-0.0383 0.28477,0.26306 0,0.30131 0.20113,0.42353 0.44696,0.27159 0.24583,-0.15193 0.44696,-0.0514 0.44696,0.22348 0,0.27485 0.18396,0.38603 0.40879,0.24708 0.22483,-0.13896 0.47624,-0.0561 0.5587,0.18417 0.0824,0.24026 0.55218,0.51299 1.04383,0.60608 0.49166,0.0931 1.2302,0.31554 1.6412,0.49432 0.41101,0.17877 1.0144,0.3655 1.34089,0.41493 0.32648,0.0494 0.81069,0.22573 1.07603,0.39178 1.17517,0.73539 6.7486,1.20628 12.92639,1.09214 5.57943,-0.10309 7.21065,-0.29492 9.72139,-1.14319 1.65935,-0.56062 3.01699,-1.21591 3.01699,-1.4562 0,-0.2403 0.20113,-0.3126 0.44696,-0.16066 0.24583,0.15193 0.44696,0.0632 0.44696,-0.1971 0,-0.26034 0.15085,-0.43062 0.33522,-0.37839 0.38628,0.10942 2.25637,-0.85298 3.24047,-1.66764 2.08095,-1.72266 9.38615,-9.39119 9.38615,-9.85297 0,-0.30065 0.31445,-0.66731 0.69878,-0.81479 0.38432,-0.14748 0.5842,-0.45352 0.44417,-0.68008 -0.14002,-0.22657 -0.0737,-0.47941 0.14733,-0.56186 1.06572,-0.39753 5.33765,-9.36393 5.59027,-11.73356 0.0568,-0.53299 0.21378,-1.16169 0.34878,-1.39712 0.93715,-1.63444 1.44835,-6.59279 1.42657,-13.83688 -0.02,-6.67994 -0.36945,-10.34488 -1.0662,-11.18444 -0.23682,-0.28533 -0.32467,-0.62468 -0.19525,-0.7541 0.3043,-0.3043 -1.5855,-5.40715 -2.13552,-5.76637 -0.23028,-0.1504 -0.3807,-0.41044 -0.33425,-0.57788 0.12962,-0.46717 -0.97118,-2.94784 -1.3081,-2.94784 -0.16368,0 -0.3292,-0.41948 -0.36783,-0.93219 -0.0419,-0.55658 0.14485,-0.85113 0.46358,-0.73103 2.34287,0.88285 8.9288,2.5319 9.2699,2.32109 0.23462,-0.14502 0.4266,-0.0825 0.4266,0.13893 0,0.52375 3.46122,1.56151 4.03185,1.20884 0.24077,-0.1488 0.43775,-0.082 0.43775,0.14842 0,0.48479 3.56695,1.47979 4.10742,1.14576 0.1992,-0.12312 0.3622,-0.0199 0.3622,0.22924 0,0.38911 2.43095,1.12831 3.79915,1.15523 0.24585,0.005 0.54753,0.11964 0.67045,0.25512 0.42168,0.46476 6.8108,2.19897 7.20463,1.95556 0.21655,-0.13382 0.3937,-0.0548 0.3937,0.17566 0,0.48479 3.56695,1.47979 4.10742,1.14576 0.1992,-0.12312 0.3622,-0.0332 0.3622,0.19974 0,0.4097 2.77413,1.1984 3.9109,1.11189 0.30728,-0.0234 0.5587,0.11388 0.5587,0.30504 0,0.3514 2.88028,1.11427 3.9109,1.03584 0.30728,-0.0234 0.5587,0.11388 0.5587,0.30504 0,0.3514 2.88028,1.11428 3.9109,1.03584 0.3073,-0.0234 0.5587,0.11389 0.5587,0.30504 0,0.30229 2.51783,1.02744 3.79918,1.0942 0.24582,0.0128 0.5627,0.17947 0.70415,0.37037 0.14147,0.19091 0.8953,0.39204 1.67522,0.44697 0.7799,0.0549 1.41843,0.2416 1.4189,0.41483 0,0.28198 2.66383,0.99476 3.80005,1.01712 0.24583,0.005 0.70828,0.25574 1.02765,0.55756 0.4714,0.44547 0.24245,0.99676 -1.21637,2.92893 -2.1844,2.89325 -5.05208,8.28908 -4.70435,8.85174 0.13902,0.22492 0.0662,0.40895 -0.1617,0.40895 -0.41655,0 -1.7051,4.0731 -2.15245,6.80387 -0.13198,0.80569 -0.35623,2.16886 -0.49833,3.02926 -0.47917,2.90134 -0.30062,11.97766 0.24863,12.63948 0.2867,0.34546 0.4154,0.734 0.28597,0.86343 -0.39535,0.39533 1.6017,5.31175 3.50208,8.62164 1.89697,3.30395 8.49445,10.30372 9.26355,9.82841 0.24162,-0.14933 0.4393,-0.10036 0.4393,0.10882 0,0.45582 4.60347,2.62013 6.48717,3.04994 2.20733,0.50364 8.80975,0.5887 10.7208,0.13811 0.98333,-0.23184 1.98898,-0.46968 2.23483,-0.52853 0.24582,-0.0588 0.69837,-0.26405 1.00565,-0.45602 0.30727,-0.19196 0.5587,-0.21346 0.5587,-0.0478 0,0.16569 0.50282,-0.0282 1.1174,-0.43089 0.61457,-0.40268 1.1174,-0.61408 1.1174,-0.46977 0,0.14431 0.80452,-0.18978 1.78785,-0.74244 0.9833,-0.55265 1.78785,-1.18079 1.78785,-1.39586 0,-0.21506 0.18735,-0.27523 0.41637,-0.1337 0.229,0.14154 0.6996,-0.14701 1.04575,-0.64121 0.34615,-0.49421 0.72443,-0.80349 0.84063,-0.68729 0.1162,0.1162 1.09542,-0.68962 2.17605,-1.79069 1.08062,-1.10107 1.80002,-2.00195 1.5987,-2.00195 -0.20133,0 0.10877,-0.39557 0.68912,-0.87905 0.58035,-0.48348 0.8965,-0.88574 0.70255,-0.89392 -0.19395,-0.008 0.0356,-0.43158 0.51008,-0.9409 1.59667,-1.71383 3.11005,-7.38827 3.09072,-11.58887 -0.01,-2.08954 -0.12837,-3.99179 -0.26395,-4.22722 -0.13557,-0.23543 -0.29905,-0.92116 -0.36332,-1.52383 -0.0642,-0.60268 -0.37853,-1.26179 -0.69843,-1.46469 -0.31987,-0.2029 -0.42557,-0.37199 -0.2349,-0.37575 0.68955,-0.0136 -1.13622,-2.83121 -3.34375,-5.16027 -2.07042,-2.18439 -7.49732,-5.66418 -7.51335,-4.81766 -0.004,0.19879 -0.17272,0.0999 -0.37545,-0.21966 -0.20272,-0.3196 -0.80305,-0.61382 -1.33402,-0.65382 -0.531,-0.04 -0.96545,-0.25257 -0.96545,-0.47238 0,-0.21982 -0.3017,-0.2839 -0.67045,-0.1424 -0.36875,0.1415 -0.67045,0.0848 -0.67045,-0.12591 0,-0.35534 -2.15448,-0.94782 -4.24613,-1.16768 -0.49165,-0.0517 -1.23625,-0.23822 -1.65467,-0.41453 -0.41845,-0.17631 -0.9269,-0.21791 -1.1299,-0.0924 -0.20303,0.12548 -0.86635,-0.15393 -1.47405,-0.62089 -0.67458,-0.51837 -0.8583,-0.8529 -0.4717,-0.85897 0.34825,-0.005 0.52295,-0.12018 0.3882,-0.25493 -0.13475,-0.13474 0.18372,-0.7755 0.7077,-1.42389 2.0085,-2.48544 7.4336,-7.64978 7.4336,-7.0763 0,0.1019 1.1012,-0.20177 2.44712,-0.67482 1.3459,-0.47305 2.8544,-0.86009 3.3522,-0.86009 0.4978,0 0.90478,-0.15085 0.90438,-0.33522 0,-0.48183 13.69642,0.11345 16.0913,0.69931 3.19017,0.78043 6.70947,2.08175 9.66587,3.57415 6.1564,3.10772 14.0093,10.21624 17.4573,15.80252 0.8851,1.434 1.7937,2.60727 2.0191,2.60727 0.2254,0 0.2898,0.19424 0.1431,0.43163 -0.1467,0.2374 0.1398,1.22851 0.6366,2.20247 1.429,2.80101 3.0248,8.86227 3.5987,13.66839 0.5091,4.26461 0.4886,15.42396 -0.028,15.42917 -0.2299,0.002 -1.5051,5.42066 -1.5259,6.48348 0,0.24583 -0.1093,0.54753 -0.2322,0.67044 -0.1229,0.12291 -1.1286,2.02247 -2.2348,4.22122 -1.5148,3.01078 -2.9339,4.96905 -5.7481,7.93205 -4.2692,4.49485 -7.9547,7.10107 -14.2221,10.05731 -2.414,1.13865 -4.4566,2.24004 -4.5391,2.44753 -0.082,0.20749 -0.3107,0.27785 -0.5073,0.15635 -0.5142,-0.31779 -3.14187,0.66857 -3.14187,1.17936 0,0.23629 -0.17603,0.32083 -0.39115,0.18787 -0.39588,-0.24466 -4.56033,1.00274 -4.97238,1.4894 -0.12292,0.14517 -0.42462,0.26395 -0.67045,0.26395 -1.06332,0 -5.587,1.29055 -5.587,1.59391 0,0.18355 -0.40227,0.22853 -0.89392,0.1 -0.51958,-0.13587 -0.89393,-0.0137 -0.89393,0.29171 0,0.289 -0.18545,0.41084 -0.41215,0.27074 -0.48307,-0.29855 -7.34965,1.12496 -7.537,1.56251 -0.07,0.16356 -0.62312,0.20259 -1.22912,0.0868 -0.60603,-0.11584 -1.10185,-0.0139 -1.10185,0.22646 0,0.2404 -0.50283,0.34097 -1.1174,0.22348 -0.67935,-0.12987 -1.1174,-0.008 -1.1174,0.31184 0,0.289 -0.1879,0.40931 -0.4176,0.26736 -0.60613,-0.37462 -9.41553,1.16083 -9.41553,1.64109 0,0.22266 -0.21225,0.27365 -0.4717,0.11332 -0.52847,-0.32662 -11.14927,1.18849 -11.14927,1.5905 0,0.14113 -0.70398,0.17442 -1.56438,0.074 -0.881,-0.10285 -1.56435,0.0157 -1.56435,0.27139 0,0.24971 -0.39927,0.34961 -0.88725,0.222 -0.48797,-0.12761 -1.24222,-0.0799 -1.6761,0.10599 -0.43387,0.1859 -1.32202,0.29607 -1.97367,0.24482 -0.65165,-0.0513 -1.30553,0.10214 -1.45308,0.34086 -0.14752,0.23872 -0.6673,0.32968 -1.15505,0.20213 -0.48772,-0.12754 -1.24177,-0.0798 -1.67565,0.10611 -0.43387,0.1859 -1.32202,0.29607 -1.97367,0.24482 -0.65165,-0.0512 -1.31923,0.12431 -1.4835,0.39011 -0.16428,0.26581 -0.4742,0.37482 -0.68873,0.24223 -0.21452,-0.13257 -1.55827,-0.0348 -2.9861,0.21727 -1.42785,0.25207 -3.19947,0.54205 -3.93695,0.6444 -0.7375,0.10234 -2.04485,0.2969 -2.90525,0.43236 -0.8604,0.13545 -2.26832,0.34222 -3.12872,0.4595 -0.8604,0.11727 -2.16775,0.30434 -2.90525,0.41571 -0.73748,0.11137 -2.24598,0.322 -3.3522,0.46806 -1.10623,0.14607 -3.5198,0.57342 -5.36353,0.94968 -3.66287,0.74751 -4.12565,0.83188 -7.2686,1.32515 -1.17072,0.18373 -2.2331,0.5032 -2.36087,0.70993 -0.12775,0.20673 -0.5072,0.27037 -0.8432,0.14143 -0.336,-0.12893 -0.73828,-0.0284 -0.89393,0.22348 -0.15565,0.25186 -0.55792,0.35242 -0.89392,0.22348 -0.336,-0.12893 -0.73828,-0.0284 -0.89393,0.22349 -0.15565,0.25185 -0.5579,0.35241 -0.8939,0.22348 -0.33602,-0.12894 -0.74575,-0.0163 -0.9105,0.25029 -0.16477,0.2666 -0.46992,0.37943 -0.67815,0.25075 -0.2082,-0.12868 -0.94855,0.001 -1.64522,0.28837 -0.69665,0.28728 -1.41053,0.49218 -1.58635,0.45532 -0.17585,-0.0368 -0.87983,0.16523 -1.56438,0.44908 -0.68455,0.28384 -1.3955,0.55807 -1.57985,0.6094 -0.18437,0.0513 -0.4358,0.1436 -0.55872,0.20506 -0.1229,0.0615 -0.4246,0.16202 -0.67043,0.22348 -0.24582,0.0615 -0.59782,0.1607 -0.78217,0.22054 -0.18438,0.0598 -0.48968,0.0838 -0.67845,0.0532 -0.18875,-0.0306 -1.09385,0.27941 -2.0113,0.68885 -0.91748,0.40944 -1.81898,0.78776 -2.00336,0.84071 -0.18437,0.053 -0.43577,0.14656 -0.5587,0.20801 -0.1229,0.0615 -0.37432,0.14677 -0.5587,0.18959 -0.86205,0.20017 -2.74922,0.91384 -4.58132,1.73252 -1.10624,0.49431 -2.23369,0.94596 -2.50547,1.00366 -0.75594,0.16049 -9.72978,4.67651 -9.99751,5.03117 -0.12948,0.17151 -0.53711,0.37808 -0.90585,0.45903 -1.07809,0.23671 -8.08932,5.03449 -8.35005,5.71394 -0.13082,0.34089 -0.48502,0.6198 -0.78714,0.6198 -0.30211,0 -1.90889,1.45821 -3.57064,3.24046 -1.66174,1.78226 -3.40436,3.64981 -3.87249,4.15011 -0.46813,0.5003 -0.85115,1.15398 -0.85115,1.45262 0,0.29864 -0.1744,0.54298 -0.38756,0.54298 -0.21317,0 -0.91998,0.80453 -1.57071,1.78784 -0.65072,0.98332 -1.07188,1.78785 -0.9359,1.78785 0.13598,0 -0.16287,0.44019 -0.6641,0.9782 -0.85585,0.91864 -1.08977,1.46743 -0.96426,2.26226 0.0291,0.18437 -0.12022,0.33522 -0.33184,0.33522 -0.52471,0 -3.73036,7.0871 -3.42739,7.57732 0.13312,0.21539 0.031,0.46198 -0.22697,0.54796 -0.25795,0.086 -0.52322,0.66478 -0.58947,1.28622 -0.0663,0.62144 -0.25622,1.34955 -0.42215,1.61803 -0.3308,0.53524 -1.54569,5.77564 -1.58779,6.8489 -0.0145,0.36874 -0.2561,1.6761 -0.53697,2.90524 -0.55707,2.43788 -0.80367,17.81359 -0.32616,20.33672 0.16283,0.8604 0.4142,2.3465 0.5586,3.30247 0.1444,0.95595 0.40236,1.9616 0.57325,2.2348 0.17089,0.27318 0.35115,0.7638 0.40059,1.09031 0.0494,0.32648 0.23616,0.92988 0.41494,1.34088 0.17878,0.411 0.40048,1.14081 0.49267,1.62179 0.0922,0.48097 0.41396,1.03102 0.71503,1.2223 0.30108,0.19127 0.39248,0.35085 0.20312,0.35462 -0.4122,0.008 1.39795,3.68775 2.00688,4.07945 0.2338,0.1504 0.40662,0.4521 0.38405,0.67045 -0.0648,0.6268 2.66146,4.6431 3.15174,4.6431 0.24277,0 0.33807,0.1672 0.21179,0.37153 -0.31461,0.50905 6.7979,8.12075 7.58817,8.12075 0.34868,0 0.63397,0.18937 0.63397,0.42082 0,0.59605 5.19068,4.51958 5.53015,4.18013 0.15418,-0.15418 0.28034,-0.0457 0.28034,0.2411 0,0.2868 0.3017,0.52147 0.67044,0.52147 0.36874,0 0.67044,0.16885 0.67044,0.3752 0,0.41175 2.25619,1.61565 2.7935,1.49063 0.18438,-0.0429 0.33523,0.135 0.33523,0.39535 0,0.26032 0.20113,0.34902 0.44696,0.1971 0.24582,-0.15193 0.44696,-0.0632 0.44696,0.1971 0,0.26032 0.15085,0.432 0.33522,0.38145 0.18437,-0.0506 0.9889,0.25632 1.78784,0.68192 0.79894,0.42558 1.45262,0.64345 1.45262,0.48413 0,-0.15933 0.3017,-0.0393 0.67044,0.26672 0.36875,0.30603 0.67044,0.4066 0.67044,0.22348 0,-0.18313 0.3017,-0.0826 0.67045,0.22347 0.36874,0.30605 0.67044,0.4415 0.67044,0.30103 0,-0.14048 0.6659,0.0227 1.47978,0.3629 2.21637,0.92605 5.67559,1.28452 12.37599,1.28247 6.65793,-0.002 10.56316,-0.36002 11.38718,-1.0439 0.29673,-0.24627 0.64398,-0.34332 0.77163,-0.21567 0.12767,0.12767 0.81312,-0.008 1.52325,-0.30165 0.71012,-0.29355 1.3917,-0.56798 1.5146,-0.6098 2.5721,-0.87535 7.10652,-3.15813 8.66815,-4.36383 2.13005,-1.6446 6.10397,-5.37125 5.92185,-5.55337 -0.0933,-0.0933 0.40652,-0.78643 1.11072,-1.54028 0.7042,-0.75385 1.1687,-1.55132 1.03223,-1.77215 -0.13648,-0.22085 -0.0695,-0.40152 0.14877,-0.40152 0.45703,0 2.25143,-3.70553 2.59728,-5.36353 0.1282,-0.61457 0.35977,-1.62022 0.51462,-2.2348 0.15483,-0.61457 0.2598,-3.12872 0.2333,-5.587 -0.0621,-5.75819 -0.0738,-5.88869 -0.65397,-7.29982 -0.26965,-0.65583 -0.5659,-1.5947 -0.65835,-2.08635 -0.0924,-0.49168 -0.36468,-0.9614 -0.60493,-1.04385 -0.24025,-0.0824 -0.33315,-0.31765 -0.20645,-0.52268 0.12673,-0.205 -0.0875,-0.69065 -0.4761,-1.07922 -0.38855,-0.38855 -0.56765,-0.70648 -0.398,-0.70648 0.41498,0 -1.79147,-2.9543 -3.75542,-5.0283 -0.87295,-0.92185 -1.82653,-1.6761 -2.1191,-1.6761 -0.29253,0 -0.65258,-0.31445 -0.80005,-0.69877 -0.14748,-0.38433 -0.47068,-0.57358 -0.71825,-0.42058 -0.24758,0.153 -0.45013,0.09 -0.45013,-0.14012 0,-0.60953 -3.85682,-2.15208 -6.7044,-2.68148 -1.35205,-0.25135 -4.36905,-0.39177 -6.70442,-0.31205 -6.88178,0.2349 -10.55336,1.82145 -14.76711,6.38115 -2.55497,2.76473 -4.78342,6.71753 -5.17431,9.17815 -0.12512,0.78765 -0.35858,2.13605 -0.51879,2.99646 -0.37432,2.01024 -0.37432,6.48197 0,8.49224 0.16021,0.8604 0.39719,2.23665 0.52663,3.05838 0.28128,1.7857 2.92652,7.66867 3.4482,7.66867 0.2017,0 0.25945,0.2796 0.12832,0.62135 -0.22232,0.57938 -2.41426,0.8 -2.41496,0.24308 -1.7e-4,-0.13913 -1.11655,-0.71563 -2.48082,-1.28108 -9.37424,-3.88542 -17.03047,-12.6912 -19.26266,-22.15487 -0.40589,-1.7208 -0.82839,-3.43043 -0.93889,-3.79915 -0.43841,-1.46293 -0.0205,-9.10138 0.63012,-11.51648 0.37972,-1.40953 0.71985,-2.86449 0.75585,-3.23323 0.036,-0.36874 0.17568,-0.77101 0.31039,-0.89392 0.13472,-0.12291 0.81946,-1.22914 1.52165,-2.45828 3.93463,-6.88734 11.22522,-13.72961 18.57012,-17.42821 1.35206,-0.68084 2.55885,-1.36237 2.68178,-1.5145 0.1229,-0.15213 0.52517,-0.32016 0.8939,-0.37341 1.46077,-0.2109 7.8293,-2.11366 7.94448,-2.3736 0.0675,-0.15225 0.72112,-0.18897 1.4526,-0.0816 0.7315,0.10736 1.32997,0.006 1.32997,-0.22508 0,-0.23115 0.60093,-0.33208 1.3354,-0.22428 0.73448,0.1078 1.68985,0.0591 2.12308,-0.10831 1.00592,-0.38862 9.9506,-0.55807 9.95045,-0.1885 -5e-5,0.15262 1.23977,0.41776 2.75517,0.58921 10.13878,1.14707 21.82265,7.69621 31.88418,17.87192 5.02527,5.08232 8.199,9.44429 11.11822,15.28089 1.84995,3.69872 4.30193,10.56147 4.30193,12.04052 0,0.35605 0.1663,0.64735 0.36955,0.64735 0.20325,0 0.281,0.60341 0.17275,1.34091 -0.10825,0.73748 -0.023,1.3408 0.18915,1.3407 0.59195,0 0.20045,23.39657 -0.40905,24.44417 -0.21623,0.37167 -0.95433,5.19372 -0.97905,6.39627 -0.007,0.36875 -0.11435,0.77103 -0.23728,0.89393 -0.4349,0.4349 -1.7826,6.3513 -1.5372,6.74835 0.137,0.22167 0.0145,0.40302 -0.27207,0.40302 -0.28665,0 -0.4054,0.3017 -0.2639,0.67045 0.1415,0.36873 0.0409,0.67043 -0.22348,0.67043 -0.26442,0 -0.36997,0.2887 -0.23457,0.64157 0.13542,0.35285 0.0972,0.70485 -0.085,0.78218 -0.18215,0.0774 -1.00087,1.85025 -1.8194,3.93977 -3.13297,7.9979 -7.68615,15.92675 -13.2184,23.01848 -3.94932,5.06255 -15.21112,15.8929 -21.13167,20.32207 -2.75905,2.06408 -5.01648,3.92928 -5.01648,4.14493 0,0.21565 -0.17582,0.28342 -0.39072,0.1506 -0.2149,-0.13283 -0.89173,0.2073 -1.50405,0.7558 -0.61233,0.5485 -1.33383,1.04497 -1.60333,1.10327 -0.26947,0.0583 -1.81067,0.91433 -3.4249,1.90235 -6.83175,4.1815 -18.72425,9.59268 -27.046,12.30618 -2.08954,0.68132 -3.89973,1.35967 -4.02264,1.50742 -0.12292,0.14775 -0.82495,0.31313 -1.56007,0.3675 -0.73513,0.0544 -1.39845,0.28445 -1.47405,0.51125 -0.0756,0.22683 -0.53009,0.30973 -1.00996,0.18425 -0.47987,-0.1255 -0.87249,-0.0225 -0.87249,0.22908 0,0.2515 -0.40227,0.35205 -0.89392,0.22347 -0.49166,-0.12857 -0.89392,-0.028 -0.89392,0.22348 0,0.2515 -0.40227,0.35207 -0.89392,0.2235 -0.51957,-0.13588 -0.89393,-0.0138 -0.89393,0.2917 0,0.289 -0.21068,0.39525 -0.46817,0.2361 -0.42581,-0.26315 -4.15519,0.38637 -5.78928,1.00827 -0.36874,0.14035 -1.10377,0.21338 -1.63341,0.16233 -0.52963,-0.0511 -1.09664,0.12342 -1.26003,0.38777 -0.16337,0.26438 -0.47256,0.37218 -0.68709,0.2396 -0.21451,-0.13257 -1.55826,-0.0357 -2.9861,0.21538 -4.14614,0.72895 -5.87856,0.82565 -19.80404,1.1054 -7.25194,0.1457 -13.88931,0.33482 -14.74971,0.42027 -0.8604,0.0854 -2.04614,-0.0235 -2.63498,-0.24227 z"
     id="path3383"
     inkscape:connector-curvature="0" />
</svg>
